<svg id="svg" version="1.1" xmlns="http://www.w3.org/2000/svg" xmlns:xlink="http://www.w3.org/1999/xlink" width="400" height="400" viewBox="0, 0, 400,400"><g id="svgg"><path id="path0" d="M83.300 31.010 L 82.400 31.971 82.400 57.586 L 82.400 83.200 63.400 83.200 C 51.000 83.200,44.400 83.339,44.400 83.600 C 44.400 83.820,43.860 84.000,43.200 84.000 C 42.540 84.000,42.000 84.180,42.000 84.400 C 42.000 84.620,41.460 84.800,40.800 84.800 C 40.140 84.800,39.600 84.980,39.600 85.200 C 39.600 85.420,39.240 85.600,38.800 85.600 C 38.360 85.600,38.000 85.750,38.000 85.932 C 38.000 86.115,37.511 86.520,36.912 86.832 C 35.795 87.416,34.148 88.742,32.650 90.264 C 30.359 92.594,29.200 93.971,29.200 94.366 C 29.200 94.605,29.020 94.800,28.800 94.800 C 28.580 94.800,28.400 95.160,28.400 95.600 C 28.400 96.040,28.220 96.400,28.000 96.400 C 27.780 96.400,27.600 96.749,27.600 97.176 C 27.600 97.603,27.420 98.064,27.200 98.200 C 26.980 98.336,26.800 98.851,26.800 99.344 C 26.800 99.837,26.637 100.411,26.439 100.620 C 25.579 101.524,25.488 109.875,25.321 202.200 C 25.145 299.378,25.221 306.403,26.458 307.780 C 26.646 307.989,26.800 308.563,26.800 309.056 C 26.800 309.549,26.980 310.064,27.200 310.200 C 27.420 310.336,27.600 310.797,27.600 311.224 C 27.600 311.651,27.780 312.000,28.000 312.000 C 28.220 312.000,28.400 312.360,28.400 312.800 C 28.400 313.240,28.568 313.600,28.773 313.600 C 28.978 313.600,29.264 313.971,29.408 314.424 C 29.551 314.877,30.464 316.043,31.435 317.014 C 32.406 317.985,33.200 318.874,33.200 318.989 C 33.200 319.105,28.430 319.200,22.600 319.200 C 12.533 319.200,11.960 319.240,11.200 320.000 C 10.348 320.852,10.025 324.400,10.800 324.400 C 11.020 324.400,11.200 324.760,11.200 325.200 C 11.200 325.640,11.380 326.000,11.600 326.000 C 11.820 326.000,12.000 326.360,12.000 326.800 C 12.000 327.240,12.141 327.600,12.313 327.600 C 12.485 327.600,12.666 328.095,12.716 328.700 C 12.766 329.305,12.985 329.860,13.203 329.933 C 13.422 330.007,13.600 330.412,13.600 330.833 C 13.600 331.255,13.780 331.600,14.000 331.600 C 14.220 331.600,14.400 331.960,14.400 332.400 C 14.400 332.840,14.580 333.200,14.800 333.200 C 15.020 333.200,15.200 333.555,15.200 333.989 C 15.200 334.423,15.658 335.548,16.218 336.489 C 16.777 337.430,17.338 338.515,17.464 338.900 C 17.590 339.285,17.852 339.600,18.047 339.600 C 18.241 339.600,18.400 339.789,18.400 340.019 C 18.400 340.250,19.660 341.681,21.200 343.200 C 22.740 344.719,24.000 346.060,24.000 346.181 C 24.000 346.301,21.562 346.400,18.582 346.400 C 11.540 346.400,8.953 348.590,12.182 351.818 L 13.164 352.800 200.035 352.800 L 386.907 352.800 387.853 351.700 C 390.781 348.296,388.479 346.400,381.418 346.400 C 378.438 346.400,376.000 346.307,376.000 346.193 C 376.000 346.079,377.168 344.774,378.596 343.293 C 381.503 340.279,381.968 339.730,382.738 338.411 C 384.386 335.587,384.800 334.700,384.800 333.988 C 384.800 333.555,384.980 333.200,385.200 333.200 C 385.420 333.200,385.600 332.840,385.600 332.400 C 385.600 331.960,385.780 331.600,386.000 331.600 C 386.220 331.600,386.400 331.255,386.400 330.833 C 386.400 330.412,386.578 330.007,386.797 329.933 C 387.015 329.860,387.234 329.305,387.284 328.700 C 387.334 328.095,387.515 327.600,387.687 327.600 C 387.859 327.600,388.000 327.240,388.000 326.800 C 388.000 326.360,388.180 326.000,388.400 326.000 C 388.620 326.000,388.800 325.640,388.800 325.200 C 388.800 324.760,388.980 324.400,389.200 324.400 C 389.975 324.400,389.652 320.852,388.800 320.000 C 388.040 319.240,387.467 319.200,377.400 319.200 C 371.570 319.200,366.800 319.096,366.800 318.969 C 366.800 318.841,367.475 318.076,368.300 317.269 C 369.125 316.461,370.055 315.305,370.368 314.700 C 370.680 314.095,371.085 313.600,371.268 313.600 C 371.450 313.600,371.600 313.240,371.600 312.800 C 371.600 312.360,371.780 312.000,372.000 312.000 C 372.220 312.000,372.400 311.651,372.400 311.224 C 372.400 310.797,372.580 310.336,372.800 310.200 C 373.020 310.064,373.200 309.549,373.200 309.056 C 373.200 308.563,373.354 307.989,373.542 307.780 C 374.779 306.403,374.855 299.378,374.679 202.200 C 374.512 109.875,374.421 101.524,373.561 100.620 C 373.363 100.411,373.200 99.837,373.200 99.344 C 373.200 98.851,373.020 98.336,372.800 98.200 C 372.580 98.064,372.400 97.603,372.400 97.176 C 372.400 96.749,372.220 96.400,372.000 96.400 C 371.780 96.400,371.600 96.040,371.600 95.600 C 371.600 95.160,371.420 94.800,371.200 94.800 C 370.980 94.800,370.800 94.605,370.800 94.366 C 370.800 93.971,369.641 92.594,367.350 90.264 C 365.852 88.742,364.205 87.416,363.088 86.832 C 362.489 86.520,362.000 86.115,362.000 85.932 C 362.000 85.750,361.640 85.600,361.200 85.600 C 360.760 85.600,360.400 85.420,360.400 85.200 C 360.400 84.980,359.860 84.800,359.200 84.800 C 358.540 84.800,358.000 84.620,358.000 84.400 C 358.000 84.180,357.460 84.000,356.800 84.000 C 356.140 84.000,355.600 83.820,355.600 83.600 C 355.600 83.339,349.000 83.200,336.600 83.200 L 317.600 83.200 317.600 57.582 L 317.600 31.964 316.618 30.982 L 315.636 30.000 199.918 30.024 L 84.200 30.049 83.300 31.010 M311.800 101.600 L 311.800 167.400 200.000 167.400 L 88.200 167.400 88.097 102.000 C 88.041 66.030,88.080 36.375,88.185 36.099 C 88.337 35.700,110.928 35.619,200.088 35.699 L 311.800 35.800 311.800 101.600 M272.688 62.010 C 268.336 62.398,264.106 62.840,263.288 62.991 C 255.470 64.441,255.000 76.515,262.695 78.181 C 264.959 78.671,264.543 79.419,257.127 88.200 C 256.755 88.640,253.238 92.960,249.310 97.800 C 228.761 123.119,230.031 121.600,229.410 121.600 C 229.130 121.600,228.131 120.745,227.189 119.700 C 225.559 117.891,223.188 115.396,213.604 105.400 C 211.283 102.980,205.881 97.310,201.598 92.800 C 197.316 88.290,192.089 82.800,189.984 80.600 C 187.878 78.400,184.185 74.537,181.778 72.016 C 174.172 64.053,173.877 63.841,170.400 63.841 C 166.581 63.841,166.348 64.034,156.400 75.400 C 154.090 78.039,151.552 80.919,150.761 81.799 C 149.969 82.680,147.651 85.290,145.610 87.600 C 143.569 89.910,141.337 92.432,140.650 93.203 C 139.962 93.975,138.230 95.955,136.800 97.603 C 135.371 99.252,134.103 100.690,133.984 100.800 C 133.865 100.910,131.546 103.520,128.831 106.600 C 126.115 109.680,123.332 112.832,122.647 113.605 C 121.961 114.378,120.050 116.537,118.400 118.403 C 116.750 120.269,114.745 122.517,113.944 123.398 C 106.959 131.084,105.928 133.539,107.989 137.578 C 110.838 143.163,117.106 143.415,122.000 138.141 C 125.264 134.625,127.635 131.996,129.163 130.200 C 130.755 128.329,135.026 123.478,137.607 120.609 C 138.601 119.504,140.761 117.070,142.407 115.200 C 144.053 113.330,145.961 111.170,146.647 110.400 C 147.332 109.630,150.115 106.480,152.831 103.400 C 155.546 100.320,157.865 97.710,157.984 97.600 C 158.104 97.490,158.814 96.680,159.563 95.800 C 162.436 92.424,166.292 88.106,168.492 85.801 L 170.785 83.400 172.653 85.400 C 173.680 86.500,176.161 89.110,178.167 91.200 C 180.172 93.290,185.408 98.780,189.802 103.400 C 194.196 108.020,199.507 113.600,201.606 115.800 C 203.704 118.000,207.138 121.600,209.236 123.800 C 225.707 141.068,225.583 140.949,227.504 141.524 C 232.268 142.951,233.781 142.008,241.058 133.071 C 244.314 129.072,247.163 125.591,247.389 125.335 C 247.615 125.079,248.648 123.819,249.684 122.535 C 250.720 121.251,254.203 116.960,257.423 113.000 C 260.643 109.040,266.238 102.155,269.856 97.700 C 276.816 89.129,276.985 88.978,277.635 90.700 C 279.526 95.706,287.262 96.876,290.883 92.704 C 293.171 90.067,293.173 89.709,291.013 67.834 C 290.802 65.695,288.966 63.191,286.810 62.100 C 284.692 61.029,283.747 61.023,272.688 62.010 M284.764 66.181 C 286.325 66.989,286.654 68.158,287.188 74.800 C 287.444 77.990,287.814 82.182,288.009 84.115 C 288.486 88.855,287.616 90.800,285.019 90.800 C 282.455 90.800,281.221 88.802,281.190 84.600 C 281.171 82.162,280.488 81.160,278.813 81.113 C 277.319 81.070,277.969 80.404,270.558 89.563 C 267.281 93.613,261.720 100.469,258.200 104.798 C 254.680 109.128,248.746 116.434,245.014 121.035 C 241.282 125.636,238.042 129.599,237.814 129.842 C 237.586 130.085,236.320 131.640,235.000 133.298 C 230.553 138.884,229.942 138.850,224.070 132.693 C 221.721 130.230,217.813 126.142,215.384 123.608 C 212.955 121.074,209.093 117.020,206.801 114.600 C 204.509 112.180,200.466 107.946,197.817 105.191 C 195.168 102.436,189.581 96.586,185.403 92.191 C 173.296 79.456,171.416 77.600,170.621 77.600 C 169.832 77.600,167.007 80.324,162.946 85.000 C 160.563 87.744,148.321 101.638,145.852 104.401 C 145.163 105.172,143.340 107.242,141.800 109.001 C 140.260 110.760,138.910 112.290,138.800 112.400 C 138.690 112.510,137.250 114.128,135.600 115.995 C 133.950 117.862,132.038 120.022,131.351 120.795 C 130.663 121.568,128.519 124.000,126.585 126.200 C 116.488 137.684,115.893 138.186,113.697 137.050 C 110.602 135.449,111.048 133.455,115.646 128.342 C 117.102 126.724,119.964 123.510,122.007 121.200 C 124.050 118.890,126.369 116.280,127.161 115.399 C 127.952 114.519,130.490 111.639,132.800 109.000 C 135.110 106.361,137.646 103.481,138.434 102.601 C 141.172 99.546,146.623 93.375,150.800 88.601 C 153.110 85.961,155.650 83.081,156.445 82.201 C 157.240 81.320,159.490 78.791,161.445 76.580 C 163.400 74.369,165.723 71.743,166.606 70.745 C 170.419 66.433,169.880 66.098,185.389 82.406 C 187.582 84.713,191.275 88.580,193.595 91.000 C 195.915 93.420,201.407 99.180,205.800 103.800 C 214.307 112.747,218.779 117.432,224.794 123.700 C 230.239 129.373,229.233 129.821,239.465 117.162 C 242.949 112.851,251.200 102.705,257.800 94.615 C 272.870 76.145,272.000 77.296,272.000 75.825 C 272.000 73.920,270.976 73.512,267.009 73.833 C 263.071 74.153,261.600 73.299,261.600 70.694 C 261.600 67.864,262.499 67.467,270.400 66.810 C 273.370 66.564,277.150 66.216,278.800 66.037 C 283.320 65.549,283.552 65.555,284.764 66.181 M83.515 92.567 C 83.599 95.462,83.491 96.628,83.115 96.884 C 82.832 97.077,74.950 97.194,65.600 97.145 C 44.759 97.035,43.880 97.224,41.000 102.431 L 39.800 104.600 39.678 203.000 C 39.590 274.028,39.680 301.976,40.001 303.472 C 40.611 306.319,42.639 308.867,45.351 310.193 L 47.515 311.252 124.550 311.326 L 201.584 311.400 205.392 315.340 C 207.487 317.507,209.200 319.445,209.200 319.647 C 209.200 320.304,46.039 319.910,44.600 319.249 C 43.940 318.947,42.668 318.350,41.774 317.925 C 37.289 315.789,33.516 311.477,32.028 306.789 L 31.200 304.177 31.200 204.151 C 31.200 92.819,30.961 102.625,33.795 97.761 C 38.622 89.477,42.161 88.457,65.800 88.539 L 83.400 88.600 83.515 92.567 M355.800 89.151 C 359.786 90.979,360.809 91.621,363.007 93.672 C 365.509 96.007,366.995 98.301,368.271 101.801 C 369.408 104.918,369.408 303.482,368.271 306.599 C 365.472 314.275,359.890 318.782,351.692 319.983 C 347.790 320.555,314.397 320.064,314.407 319.435 C 314.411 319.196,314.681 317.740,315.007 316.200 C 315.333 314.660,315.600 312.999,315.600 312.508 C 315.600 311.212,315.593 311.213,335.200 311.101 L 353.000 311.000 354.858 309.908 C 356.953 308.676,358.505 306.991,359.515 304.852 C 360.576 302.604,360.576 105.796,359.515 103.548 C 358.505 101.409,356.953 99.724,354.858 98.492 L 353.000 97.400 335.600 97.300 C 314.104 97.177,316.400 97.709,316.400 92.859 C 316.400 90.700,316.528 88.805,316.685 88.649 C 317.259 88.074,354.496 88.552,355.800 89.151 M83.348 102.500 C 83.481 102.995,83.592 118.619,83.595 137.220 C 83.599 162.985,83.714 171.154,84.080 171.520 C 84.779 172.219,315.221 172.219,315.920 171.520 C 316.286 171.154,316.401 162.985,316.405 137.220 C 316.408 118.619,316.519 102.995,316.652 102.500 L 316.893 101.600 334.187 101.600 C 353.492 101.600,352.711 101.490,354.963 104.529 L 355.800 105.659 355.919 202.329 C 356.050 308.910,356.168 302.622,353.994 304.954 L 352.458 306.600 334.362 306.716 C 319.928 306.808,316.200 306.727,315.939 306.316 C 315.759 306.032,315.607 296.800,315.600 285.800 C 315.591 270.645,315.465 265.461,315.079 264.400 C 311.793 255.355,301.337 252.152,293.715 257.856 L 292.430 258.818 291.751 257.709 C 288.531 252.451,286.205 250.645,281.333 249.622 C 277.822 248.886,272.533 250.264,270.577 252.426 C 269.582 253.525,269.463 253.459,267.821 250.900 C 263.771 244.585,255.589 242.520,249.508 246.278 C 248.687 246.785,247.832 247.200,247.608 247.200 C 246.850 247.200,247.072 229.335,247.833 229.043 C 248.181 228.909,251.594 228.800,255.418 228.800 C 261.544 228.800,262.645 228.698,264.685 227.941 C 280.068 222.234,280.068 200.966,264.685 195.259 L 262.370 194.400 200.000 194.400 L 137.630 194.400 135.315 195.259 C 120.132 200.892,119.807 221.430,134.800 227.831 C 136.526 228.568,138.301 228.608,178.000 228.800 L 219.400 229.000 219.503 259.200 C 219.560 275.810,219.519 289.631,219.411 289.912 C 219.293 290.221,216.950 288.185,213.508 284.783 C 204.766 276.143,200.129 274.601,193.242 278.042 C 183.692 282.815,183.205 293.104,192.093 302.335 L 196.200 306.600 135.200 306.699 C 101.650 306.753,68.229 306.663,60.932 306.499 L 47.664 306.200 46.580 305.200 C 44.251 303.050,44.400 309.951,44.400 204.200 C 44.400 98.452,44.251 105.350,46.580 103.200 C 48.360 101.556,82.919 100.898,83.348 102.500 M264.636 200.070 C 272.445 204.174,274.125 214.295,268.017 220.435 C 264.501 223.970,262.793 224.444,254.061 224.309 L 247.000 224.200 246.800 217.200 C 246.468 205.597,242.482 200.690,233.400 200.704 C 224.109 200.718,219.615 206.581,219.605 218.700 L 219.600 224.400 179.215 224.400 C 133.343 224.400,136.522 224.630,132.501 221.015 C 124.922 214.201,128.199 201.185,138.000 199.172 C 138.770 199.014,167.120 198.911,201.000 198.942 L 262.600 199.000 264.636 200.070 M238.342 206.609 C 239.280 207.230,240.531 208.561,241.123 209.569 L 242.200 211.400 242.400 243.132 C 242.619 277.891,242.481 276.000,244.800 276.000 C 246.887 276.000,246.986 275.551,247.201 265.133 C 247.423 254.437,247.478 254.180,250.066 251.745 C 255.451 246.679,263.687 249.408,265.161 256.748 C 265.410 257.990,265.600 263.302,265.600 269.053 C 265.600 280.012,265.597 280.000,267.842 280.000 C 269.809 280.000,269.999 279.199,270.017 270.838 C 270.037 261.810,270.276 260.130,271.858 257.879 C 275.022 253.378,281.210 252.866,285.239 256.774 C 288.168 259.615,288.400 260.848,288.400 273.593 C 288.400 285.159,288.408 285.200,290.631 285.200 C 292.643 285.200,292.721 284.858,292.866 275.400 C 293.015 265.778,293.181 264.994,295.622 262.440 C 299.695 258.178,306.604 259.026,309.789 264.180 L 311.000 266.138 310.992 290.369 L 310.983 314.600 309.888 318.119 C 308.515 322.530,306.873 325.779,301.457 334.800 C 300.750 335.977,300.583 337.061,300.408 341.600 L 300.200 347.000 262.300 347.102 L 224.400 347.204 224.400 340.875 C 224.400 327.712,224.831 328.454,206.526 310.068 C 198.495 302.001,191.661 294.895,191.340 294.278 C 188.385 288.595,192.942 281.200,199.400 281.200 C 202.900 281.200,204.439 282.287,213.022 290.823 C 217.435 295.210,221.215 298.798,221.422 298.795 C 224.558 298.749,224.400 301.114,224.400 254.227 L 224.400 212.091 225.517 209.954 C 227.946 205.303,233.988 203.727,238.342 206.609 M128.540 325.708 C 129.233 326.427,130.982 328.548,132.427 330.421 C 135.034 333.799,137.763 336.021,140.800 337.239 C 141.955 337.702,148.952 337.835,180.800 338.000 L 219.400 338.200 219.513 342.707 L 219.626 347.214 128.913 347.107 L 38.200 347.000 35.676 346.083 C 32.311 344.859,27.998 342.236,25.992 340.192 L 24.362 338.531 39.446 338.265 C 47.743 338.119,58.155 338.000,62.585 338.000 C 71.217 338.000,71.600 337.914,71.600 335.982 C 71.600 333.526,72.542 333.616,45.615 333.503 C 24.302 333.414,21.043 333.321,20.749 332.800 C 19.903 331.299,17.517 325.593,17.571 325.200 C 17.625 324.803,38.222 324.577,82.340 324.489 L 127.280 324.400 128.540 325.708 M382.800 324.911 C 382.800 325.192,382.010 327.217,381.045 329.411 L 379.289 333.400 354.573 333.503 C 327.439 333.616,328.400 333.525,328.400 335.982 C 328.400 338.054,327.766 338.000,352.256 338.000 C 367.994 338.000,375.235 338.133,375.416 338.425 C 376.356 339.946,367.947 345.329,362.520 346.679 C 359.127 347.524,305.647 347.505,305.106 346.659 C 304.605 345.876,304.751 339.009,305.280 338.480 C 305.597 338.163,307.304 338.000,310.306 338.000 C 315.370 338.000,316.400 337.682,316.400 336.117 C 316.400 334.090,315.454 333.600,311.538 333.600 C 307.552 333.600,307.532 333.578,309.067 330.877 C 309.654 329.845,310.525 328.243,311.004 327.317 C 311.483 326.391,312.105 325.356,312.386 325.017 C 313.089 324.170,382.800 324.065,382.800 324.911 M84.262 334.331 C 83.354 335.335,83.414 337.072,84.374 337.586 C 85.744 338.319,102.614 338.129,103.371 337.371 C 104.214 336.528,104.166 335.074,103.269 334.262 C 102.105 333.209,85.222 333.271,84.262 334.331 M12.072 364.603 C 10.937 365.908,10.966 367.526,12.147 368.900 L 13.093 370.000 28.343 370.000 C 45.937 370.000,45.600 370.068,45.600 366.499 C 45.600 363.469,46.361 363.600,28.701 363.600 L 12.944 363.600 12.072 364.603 M56.500 364.198 C 55.716 365.089,55.857 368.803,56.700 369.443 C 57.742 370.234,342.258 370.234,343.300 369.443 C 344.192 368.766,344.283 365.026,343.429 364.171 C 342.569 363.312,57.257 363.339,56.500 364.198 M354.900 364.198 C 353.981 365.242,354.277 368.149,355.403 369.128 C 356.396 369.991,356.559 370.000,371.657 370.000 L 386.907 370.000 387.853 368.900 C 389.034 367.526,389.063 365.908,387.928 364.603 L 387.056 363.600 371.228 363.615 C 358.072 363.628,355.316 363.726,354.900 364.198 " stroke="none" fill="#3f377b" fill-rule="evenodd"></path><path id="path1" d="M108.667 36.267 C 108.217 36.717,108.349 127.921,108.800 128.200 C 109.020 128.336,109.200 128.301,109.200 128.123 C 109.200 127.945,110.145 126.786,111.300 125.547 C 112.455 124.309,115.560 120.807,118.200 117.766 C 120.840 114.725,123.540 111.681,124.200 111.001 C 124.860 110.321,126.385 108.602,127.590 107.182 C 128.794 105.762,129.875 104.510,129.993 104.400 C 130.111 104.290,131.465 102.760,133.004 101.000 C 134.542 99.240,135.890 97.710,136.000 97.600 C 136.110 97.490,136.902 96.590,137.761 95.600 C 138.619 94.610,140.537 92.450,142.024 90.800 C 143.510 89.150,146.768 85.460,149.263 82.600 C 151.758 79.740,154.250 76.947,154.800 76.394 C 155.350 75.841,156.785 74.221,157.990 72.794 C 159.194 71.367,160.278 70.110,160.400 70.000 C 160.522 69.890,161.578 68.687,162.747 67.327 C 167.381 61.937,172.698 61.742,177.567 66.782 C 178.575 67.825,182.100 71.525,185.400 75.005 C 188.700 78.485,192.390 82.357,193.600 83.610 C 196.012 86.108,208.563 99.246,210.800 101.615 C 211.570 102.430,215.190 106.225,218.845 110.049 C 222.500 113.872,226.298 117.855,227.285 118.900 C 229.638 121.391,229.143 121.667,234.808 114.700 C 237.536 111.345,239.866 108.510,239.986 108.400 C 240.106 108.290,240.696 107.541,241.296 106.735 C 241.897 105.929,242.620 105.029,242.903 104.735 C 243.187 104.441,245.746 101.320,248.590 97.800 C 251.434 94.280,253.871 91.310,254.004 91.200 C 254.137 91.090,254.506 90.621,254.823 90.157 C 255.140 89.694,256.148 88.434,257.061 87.357 C 257.975 86.281,259.806 84.050,261.130 82.400 L 263.537 79.400 261.694 78.500 C 253.100 74.303,255.330 63.305,265.000 62.200 C 287.682 59.608,290.946 60.583,291.782 70.200 C 293.442 89.292,293.425 88.732,292.415 90.880 C 291.059 93.764,289.812 94.821,286.475 95.915 C 285.109 96.363,281.200 95.763,281.200 95.105 C 281.200 94.937,280.944 94.800,280.631 94.800 C 279.957 94.800,277.200 91.689,277.200 90.928 C 277.200 89.802,276.018 90.836,273.206 94.422 C 272.439 95.400,271.592 96.470,271.324 96.800 C 271.057 97.130,269.822 98.660,268.579 100.200 C 267.337 101.740,265.934 103.450,265.461 104.000 C 264.987 104.550,263.975 105.810,263.211 106.800 C 262.448 107.790,261.546 108.870,261.207 109.200 C 260.868 109.530,260.101 110.459,259.502 111.265 C 258.902 112.071,258.184 112.971,257.906 113.265 C 257.628 113.559,256.908 114.459,256.306 115.265 C 255.704 116.071,254.977 116.971,254.689 117.265 C 254.402 117.559,252.735 119.600,250.986 121.800 C 249.237 124.000,247.712 125.890,247.597 126.000 C 247.483 126.110,246.582 127.190,245.596 128.400 C 244.610 129.610,243.623 130.796,243.402 131.037 C 243.181 131.277,242.550 132.066,242.000 132.790 C 241.450 133.514,240.730 134.426,240.400 134.817 C 240.070 135.208,239.225 136.219,238.522 137.064 C 235.970 140.133,235.358 140.725,233.880 141.555 C 231.997 142.613,228.324 142.700,226.384 141.732 C 224.862 140.973,224.234 140.358,213.800 129.409 C 207.100 122.379,203.679 118.796,196.800 111.605 C 195.810 110.570,193.485 108.120,191.633 106.161 C 189.782 104.203,185.163 99.360,181.370 95.400 C 177.577 91.440,173.644 87.300,172.631 86.200 L 170.788 84.200 168.894 86.215 C 165.995 89.300,163.224 92.385,160.801 95.224 C 159.591 96.641,158.241 98.177,157.801 98.639 C 157.360 99.100,156.550 100.001,156.000 100.641 C 154.360 102.548,146.305 111.690,144.934 113.200 C 144.234 113.970,143.333 114.976,142.931 115.436 C 138.878 120.073,137.658 121.456,136.800 122.393 C 136.250 122.994,134.720 124.724,133.400 126.239 C 132.080 127.754,130.265 129.804,129.366 130.796 C 128.467 131.788,127.207 133.219,126.566 133.975 C 124.540 136.364,119.436 141.382,118.505 141.901 C 116.388 143.082,111.383 142.234,109.420 140.362 C 109.211 140.163,108.896 140.000,108.720 140.000 C 108.544 140.000,108.400 146.030,108.400 153.400 L 108.400 166.800 194.700 166.801 C 242.165 166.801,287.885 166.920,296.300 167.066 L 311.600 167.330 311.600 101.665 L 311.600 36.000 210.267 36.000 C 154.533 36.000,108.813 36.120,108.667 36.267 M327.085 89.077 L 317.170 89.214 317.285 92.907 L 317.400 96.600 335.000 96.813 C 344.680 96.930,353.050 97.182,353.600 97.374 C 355.946 98.190,358.251 100.308,359.724 103.000 L 360.600 104.600 360.600 204.216 L 360.600 303.831 359.200 306.154 C 357.225 309.431,355.123 310.878,351.316 311.582 C 349.976 311.829,342.336 312.000,332.582 312.000 L 316.111 312.000 315.852 314.300 C 315.710 315.565,315.488 317.157,315.360 317.839 L 315.127 319.078 333.664 319.355 C 349.848 319.597,352.501 319.552,354.570 319.003 C 361.739 317.100,367.114 311.236,368.352 303.967 C 369.102 299.560,368.964 107.438,368.208 103.870 C 366.991 98.128,363.306 93.205,358.600 91.037 C 357.280 90.428,355.840 89.731,355.400 89.486 C 354.526 89.001,343.770 88.846,327.085 89.077 M59.664 90.787 C 56.876 92.991,54.571 96.040,55.360 96.482 C 55.684 96.663,61.945 96.763,69.274 96.705 L 82.600 96.600 82.715 92.900 L 82.830 89.200 72.251 89.200 L 61.672 89.200 59.664 90.787 M135.717 200.637 C 133.509 201.706,130.000 205.220,130.000 206.363 C 130.000 206.735,129.790 207.250,129.533 207.507 C 129.246 207.794,129.067 209.370,129.067 211.600 C 129.067 213.830,129.246 215.406,129.533 215.693 C 129.790 215.950,130.000 216.465,130.000 216.837 C 130.000 218.557,135.555 223.200,137.614 223.200 C 138.020 223.200,138.464 223.380,138.600 223.600 C 138.762 223.862,152.671 224.000,179.024 224.000 L 219.200 224.000 219.200 217.619 C 219.200 211.556,219.316 210.731,220.550 208.006 C 224.511 199.256,236.493 197.310,243.467 204.284 C 244.640 205.457,245.600 206.683,245.600 207.009 C 245.600 207.334,245.780 207.600,246.000 207.600 C 246.220 207.600,246.400 207.924,246.400 208.320 C 246.400 208.716,246.622 209.262,246.893 209.533 C 247.233 209.873,247.433 212.190,247.538 217.013 L 247.691 224.000 254.422 224.000 C 258.478 224.000,261.251 223.841,261.400 223.600 C 261.536 223.380,261.991 223.200,262.411 223.200 C 264.578 223.200,268.248 220.102,269.862 216.912 C 271.043 214.578,271.418 208.458,270.441 207.481 C 270.198 207.238,270.000 206.758,270.000 206.413 C 270.000 205.232,266.454 201.683,264.215 200.625 L 262.050 199.600 199.925 199.615 L 137.800 199.629 135.717 200.637 M55.044 312.500 C 55.922 314.011,57.978 316.280,59.706 317.646 L 61.672 319.200 135.039 319.200 L 208.406 319.200 204.712 315.600 L 201.019 312.000 127.886 312.000 C 69.491 312.000,54.811 312.101,55.044 312.500 M38.366 326.900 C 38.772 327.835,39.565 329.635,40.130 330.900 L 41.156 333.200 55.878 333.213 C 72.269 333.227,72.080 333.197,72.080 335.784 C 72.080 338.481,72.519 338.400,57.975 338.400 C 50.755 338.400,44.749 338.559,44.629 338.754 C 44.257 339.355,50.363 344.819,52.540 345.833 L 54.600 346.792 136.900 346.796 L 219.200 346.800 219.200 342.600 L 219.200 338.400 180.894 338.400 C 138.151 338.400,140.924 338.575,136.615 335.610 C 134.990 334.492,128.671 327.128,128.110 325.700 C 127.955 325.304,118.515 325.200,82.771 325.200 L 37.628 325.200 38.366 326.900 M312.529 325.700 C 312.326 325.975,311.721 327.100,311.185 328.200 C 310.649 329.300,310.118 330.290,310.005 330.400 C 309.609 330.786,308.800 332.393,308.800 332.795 C 308.800 333.036,310.150 333.200,312.138 333.200 C 315.894 333.200,316.933 333.800,316.933 335.967 C 316.933 338.116,316.198 338.400,310.629 338.400 L 305.600 338.400 305.600 342.600 L 305.600 346.800 332.980 346.800 C 355.952 346.800,360.730 346.704,362.650 346.204 C 366.298 345.254,370.628 342.927,373.117 340.582 L 375.400 338.429 352.180 338.415 C 326.700 338.399,328.000 338.536,328.000 335.864 C 328.000 333.093,326.682 333.227,354.105 333.213 L 378.811 333.200 379.757 331.100 C 380.277 329.945,381.075 328.145,381.529 327.100 L 382.355 325.200 347.626 325.200 C 320.307 325.200,312.819 325.307,312.529 325.700 M103.971 334.254 C 104.969 335.523,105.004 336.117,104.154 337.414 L 103.508 338.400 93.925 338.400 C 83.382 338.400,83.067 338.329,83.067 335.967 C 83.067 333.310,83.493 333.200,93.833 333.200 L 103.142 333.200 103.971 334.254 " stroke="none" fill="#cfcfcf" fill-rule="evenodd"></path><path id="path2" d="M230.602 205.471 C 228.747 205.995,226.452 208.039,225.440 210.070 L 224.400 212.157 224.400 254.260 C 224.400 301.096,224.556 298.748,221.431 298.795 C 221.228 298.798,217.447 295.212,213.027 290.827 C 204.435 282.301,202.876 281.200,199.400 281.200 C 192.940 281.200,188.371 288.621,191.347 294.278 C 191.672 294.895,198.477 301.970,206.471 310.000 C 224.774 328.387,224.383 327.721,224.394 340.502 L 224.400 347.204 262.300 347.102 L 300.200 347.000 300.408 341.600 C 300.587 336.958,300.741 335.989,301.508 334.700 C 308.455 323.016,310.079 319.239,310.845 312.990 C 311.074 311.124,311.189 300.636,311.119 287.958 L 311.000 266.136 309.789 264.179 C 305.892 257.877,297.080 258.386,293.744 265.105 C 293.104 266.394,292.983 267.810,292.866 275.400 C 292.721 284.858,292.643 285.200,290.631 285.200 C 288.408 285.200,288.400 285.159,288.400 273.593 C 288.400 260.848,288.168 259.615,285.239 256.774 C 281.210 252.866,275.022 253.378,271.858 257.879 C 270.276 260.130,270.037 261.810,270.017 270.838 C 269.999 279.199,269.809 280.000,267.842 280.000 C 265.597 280.000,265.600 280.012,265.600 269.053 C 265.600 253.035,263.782 249.200,256.188 249.200 C 249.209 249.200,247.206 252.879,247.202 265.700 C 247.200 275.056,246.987 276.000,244.876 276.000 C 242.469 276.000,242.620 278.007,242.400 243.132 L 242.200 211.400 241.123 209.569 C 239.160 206.228,234.436 204.389,230.602 205.471 " stroke="none" fill="#fbab24" fill-rule="evenodd"></path><path id="path3" d="M278.800 66.037 C 277.150 66.216,273.370 66.564,270.400 66.810 C 262.499 67.467,261.600 67.864,261.600 70.694 C 261.600 73.299,263.071 74.153,267.009 73.833 C 270.976 73.512,272.000 73.920,272.000 75.825 C 272.000 77.296,272.870 76.145,257.800 94.615 C 251.200 102.705,242.949 112.851,239.465 117.162 C 229.233 129.821,230.239 129.373,224.794 123.700 C 218.779 117.432,214.307 112.747,205.800 103.800 C 201.407 99.180,195.915 93.420,193.595 91.000 C 191.275 88.580,187.582 84.713,185.389 82.406 C 169.880 66.098,170.419 66.433,166.606 70.745 C 165.723 71.743,163.400 74.369,161.445 76.580 C 159.490 78.791,157.240 81.320,156.445 82.201 C 155.650 83.081,153.110 85.961,150.800 88.601 C 146.623 93.375,141.172 99.546,138.434 102.601 C 137.646 103.481,135.110 106.361,132.800 109.000 C 130.490 111.639,127.952 114.519,127.161 115.399 C 126.369 116.280,124.050 118.890,122.007 121.200 C 119.964 123.510,117.102 126.724,115.646 128.342 C 111.048 133.455,110.602 135.449,113.697 137.050 C 115.893 138.186,116.488 137.684,126.585 126.200 C 128.519 124.000,130.663 121.568,131.351 120.795 C 132.038 120.022,133.950 117.862,135.600 115.995 C 137.250 114.128,138.690 112.510,138.800 112.400 C 138.910 112.290,140.260 110.760,141.800 109.001 C 143.340 107.242,145.163 105.172,145.852 104.401 C 148.321 101.638,160.563 87.744,162.946 85.000 C 167.007 80.324,169.832 77.600,170.621 77.600 C 171.416 77.600,173.296 79.456,185.403 92.191 C 189.581 96.586,195.168 102.436,197.817 105.191 C 200.466 107.946,204.509 112.180,206.801 114.600 C 209.093 117.020,212.955 121.074,215.384 123.608 C 217.813 126.142,221.721 130.230,224.070 132.693 C 229.942 138.850,230.553 138.884,235.000 133.298 C 236.320 131.640,237.586 130.085,237.814 129.842 C 238.042 129.599,241.282 125.636,245.014 121.035 C 248.746 116.434,254.680 109.128,258.200 104.798 C 261.720 100.469,267.281 93.613,270.558 89.563 C 277.969 80.404,277.319 81.070,278.813 81.113 C 280.488 81.160,281.171 82.162,281.190 84.600 C 281.221 88.802,282.455 90.800,285.019 90.800 C 287.616 90.800,288.486 88.855,288.009 84.115 C 287.814 82.182,287.444 77.990,287.188 74.800 C 286.654 68.158,286.325 66.989,284.764 66.181 C 283.552 65.555,283.320 65.549,278.800 66.037 M57.131 101.983 C 47.725 102.199,47.655 102.207,46.580 103.200 C 44.251 105.350,44.400 98.452,44.400 204.200 C 44.400 309.951,44.251 303.050,46.580 305.200 L 47.664 306.200 60.932 306.499 C 68.229 306.663,101.650 306.753,135.200 306.699 L 196.200 306.600 192.093 302.335 C 183.205 293.104,183.692 282.815,193.242 278.042 C 200.129 274.601,204.766 276.143,213.508 284.783 C 216.950 288.185,219.293 290.221,219.411 289.912 C 219.519 289.631,219.560 275.810,219.503 259.200 L 219.400 229.000 178.000 228.800 C 138.301 228.608,136.526 228.568,134.800 227.831 C 119.807 221.430,120.132 200.892,135.315 195.259 L 137.630 194.400 200.000 194.400 L 262.370 194.400 264.685 195.259 C 280.068 200.966,280.068 222.234,264.685 227.941 C 262.645 228.698,261.544 228.800,255.418 228.800 C 251.594 228.800,248.181 228.909,247.833 229.043 C 247.072 229.335,246.850 247.200,247.608 247.200 C 247.832 247.200,248.687 246.785,249.508 246.278 C 255.589 242.520,263.771 244.585,267.821 250.900 C 269.463 253.459,269.582 253.525,270.577 252.426 C 272.533 250.264,277.822 248.886,281.333 249.622 C 286.205 250.645,288.531 252.451,291.751 257.709 L 292.430 258.818 293.715 257.856 C 301.337 252.152,311.793 255.355,315.079 264.400 C 315.465 265.461,315.591 270.645,315.600 285.800 C 315.607 296.800,315.759 306.032,315.939 306.316 C 316.200 306.727,319.928 306.808,334.362 306.716 L 352.458 306.600 353.994 304.954 C 356.168 302.622,356.050 308.910,355.919 202.329 L 355.800 105.659 354.963 104.529 C 352.711 101.490,353.492 101.600,334.187 101.600 L 316.893 101.600 316.652 102.500 C 316.519 102.995,316.408 118.619,316.405 137.220 C 316.401 162.985,316.286 171.154,315.920 171.520 C 315.221 172.219,84.779 172.219,84.080 171.520 C 83.714 171.154,83.599 162.985,83.595 137.220 C 83.592 118.619,83.481 102.995,83.348 102.500 C 83.079 101.497,80.504 101.446,57.131 101.983 " stroke="none" fill="#63c0e3" fill-rule="evenodd"></path><path id="path4" d="M88.185 36.099 C 88.080 36.375,88.041 66.030,88.097 102.000 L 88.200 167.400 200.000 167.400 L 311.800 167.400 311.800 101.600 L 311.800 35.800 200.088 35.699 C 110.928 35.619,88.337 35.700,88.185 36.099 M311.600 101.665 L 311.600 167.330 296.300 167.066 C 287.885 166.920,242.165 166.801,194.700 166.801 L 108.400 166.800 108.400 153.400 C 108.400 146.030,108.544 140.000,108.720 140.000 C 108.896 140.000,109.211 140.163,109.420 140.362 C 111.383 142.234,116.388 143.082,118.505 141.901 C 119.436 141.382,124.540 136.364,126.566 133.975 C 127.207 133.219,128.467 131.788,129.366 130.796 C 130.265 129.804,132.080 127.754,133.400 126.239 C 134.720 124.724,136.250 122.994,136.800 122.393 C 137.658 121.456,138.878 120.073,142.931 115.436 C 143.333 114.976,144.234 113.970,144.934 113.200 C 146.305 111.690,154.360 102.548,156.000 100.641 C 156.550 100.001,157.360 99.100,157.801 98.639 C 158.241 98.177,159.591 96.641,160.801 95.224 C 163.224 92.385,165.995 89.300,168.894 86.215 L 170.788 84.200 172.631 86.200 C 173.644 87.300,177.577 91.440,181.370 95.400 C 185.163 99.360,189.782 104.203,191.633 106.161 C 193.485 108.120,195.810 110.570,196.800 111.605 C 203.679 118.796,207.100 122.379,213.800 129.409 C 224.234 140.358,224.862 140.973,226.384 141.732 C 228.324 142.700,231.997 142.613,233.880 141.555 C 235.358 140.725,235.970 140.133,238.522 137.064 C 239.225 136.219,240.070 135.208,240.400 134.817 C 240.730 134.426,241.450 133.514,242.000 132.790 C 242.550 132.066,243.181 131.277,243.402 131.037 C 243.623 130.796,244.610 129.610,245.596 128.400 C 246.582 127.190,247.483 126.110,247.597 126.000 C 247.712 125.890,249.237 124.000,250.986 121.800 C 252.735 119.600,254.402 117.559,254.689 117.265 C 254.977 116.971,255.704 116.071,256.306 115.265 C 256.908 114.459,257.628 113.559,257.906 113.265 C 258.184 112.971,258.902 112.071,259.502 111.265 C 260.101 110.459,260.868 109.530,261.207 109.200 C 261.546 108.870,262.448 107.790,263.211 106.800 C 263.975 105.810,264.987 104.550,265.461 104.000 C 265.934 103.450,267.337 101.740,268.579 100.200 C 269.822 98.660,271.057 97.130,271.324 96.800 C 271.592 96.470,272.439 95.400,273.206 94.422 C 276.018 90.836,277.200 89.802,277.200 90.928 C 277.200 91.689,279.957 94.800,280.631 94.800 C 280.944 94.800,281.200 94.937,281.200 95.105 C 281.200 95.763,285.109 96.363,286.475 95.915 C 289.812 94.821,291.059 93.764,292.415 90.880 C 293.425 88.732,293.442 89.292,291.782 70.200 C 290.946 60.583,287.682 59.608,265.000 62.200 C 255.330 63.305,253.100 74.303,261.694 78.500 L 263.537 79.400 261.130 82.400 C 259.806 84.050,257.975 86.281,257.061 87.357 C 256.148 88.434,255.140 89.694,254.823 90.157 C 254.506 90.621,254.137 91.090,254.004 91.200 C 253.871 91.310,251.434 94.280,248.590 97.800 C 245.746 101.320,243.187 104.441,242.903 104.735 C 242.620 105.029,241.897 105.929,241.296 106.735 C 240.696 107.541,240.106 108.290,239.986 108.400 C 239.866 108.510,237.536 111.345,234.808 114.700 C 229.143 121.667,229.638 121.391,227.285 118.900 C 226.298 117.855,222.500 113.872,218.845 110.049 C 215.190 106.225,211.570 102.430,210.800 101.615 C 208.563 99.246,196.012 86.108,193.600 83.610 C 192.390 82.357,188.700 78.485,185.400 75.005 C 182.100 71.525,178.575 67.825,177.567 66.782 C 172.698 61.742,167.381 61.937,162.747 67.327 C 161.578 68.687,160.522 69.890,160.400 70.000 C 160.278 70.110,159.194 71.367,157.990 72.794 C 156.785 74.221,155.350 75.841,154.800 76.394 C 154.250 76.947,151.758 79.740,149.263 82.600 C 146.768 85.460,143.510 89.150,142.024 90.800 C 140.537 92.450,138.619 94.610,137.761 95.600 C 136.902 96.590,136.110 97.490,136.000 97.600 C 135.890 97.710,134.542 99.240,133.004 101.000 C 131.465 102.760,130.111 104.290,129.993 104.400 C 129.875 104.510,128.794 105.762,127.590 107.182 C 126.385 108.602,124.860 110.321,124.200 111.001 C 123.540 111.681,120.840 114.725,118.200 117.766 C 115.560 120.807,112.455 124.309,111.300 125.547 C 110.145 126.786,109.200 127.945,109.200 128.123 C 109.200 128.301,109.020 128.336,108.800 128.200 C 108.349 127.921,108.217 36.717,108.667 36.267 C 108.813 36.120,154.533 36.000,210.267 36.000 L 311.600 36.000 311.600 101.665 M286.810 62.100 C 288.966 63.191,290.802 65.695,291.013 67.834 C 293.173 89.709,293.171 90.067,290.883 92.704 C 287.262 96.876,279.526 95.706,277.635 90.700 C 276.985 88.978,276.816 89.129,269.856 97.700 C 266.238 102.155,260.643 109.040,257.423 113.000 C 254.203 116.960,250.720 121.251,249.684 122.535 C 248.648 123.819,247.615 125.079,247.389 125.335 C 247.163 125.591,244.314 129.072,241.058 133.071 C 233.781 142.008,232.268 142.951,227.504 141.524 C 225.583 140.949,225.707 141.068,209.236 123.800 C 207.138 121.600,203.704 118.000,201.606 115.800 C 199.507 113.600,194.196 108.020,189.802 103.400 C 185.408 98.780,180.172 93.290,178.167 91.200 C 176.161 89.110,173.680 86.500,172.653 85.400 L 170.785 83.400 168.492 85.801 C 166.292 88.106,162.436 92.424,159.563 95.800 C 158.814 96.680,158.104 97.490,157.984 97.600 C 157.865 97.710,155.546 100.320,152.831 103.400 C 150.115 106.480,147.332 109.630,146.647 110.400 C 145.961 111.170,144.053 113.330,142.407 115.200 C 140.761 117.070,138.601 119.504,137.607 120.609 C 135.026 123.478,130.755 128.329,129.163 130.200 C 121.130 139.640,118.358 141.972,115.149 141.991 C 110.936 142.017,107.200 138.374,107.200 134.242 C 107.200 131.265,108.079 129.851,113.944 123.398 C 114.745 122.517,116.750 120.269,118.400 118.403 C 120.050 116.537,121.961 114.378,122.647 113.605 C 123.332 112.832,126.115 109.680,128.831 106.600 C 131.546 103.520,133.865 100.910,133.984 100.800 C 134.103 100.690,135.371 99.252,136.800 97.603 C 138.230 95.955,139.962 93.975,140.650 93.203 C 141.337 92.432,143.569 89.910,145.610 87.600 C 147.651 85.290,149.969 82.680,150.761 81.799 C 151.552 80.919,154.090 78.039,156.400 75.400 C 166.348 64.034,166.581 63.841,170.400 63.841 C 173.877 63.841,174.172 64.053,181.778 72.016 C 184.185 74.537,187.878 78.400,189.984 80.600 C 192.089 82.800,197.316 88.290,201.598 92.800 C 205.881 97.310,211.283 102.980,213.604 105.400 C 223.188 115.396,225.559 117.891,227.189 119.700 C 228.131 120.745,229.130 121.600,229.410 121.600 C 230.031 121.600,228.761 123.119,249.310 97.800 C 253.238 92.960,256.755 88.640,257.127 88.200 C 264.543 79.419,264.959 78.671,262.695 78.181 C 255.000 76.515,255.470 64.441,263.288 62.991 C 265.234 62.631,279.964 61.318,282.815 61.252 C 284.397 61.215,285.539 61.457,286.810 62.100 M45.926 88.978 C 39.434 90.406,34.098 95.340,31.926 101.923 C 31.232 104.026,31.200 108.597,31.200 204.151 L 31.200 304.177 32.028 306.789 C 33.516 311.477,37.289 315.789,41.774 317.925 C 42.668 318.350,43.940 318.947,44.600 319.249 C 46.039 319.910,209.200 320.304,209.200 319.647 C 209.200 319.445,207.487 317.507,205.392 315.340 L 201.584 311.400 124.550 311.326 L 47.515 311.252 45.351 310.193 C 42.639 308.867,40.611 306.319,40.001 303.472 C 39.680 301.976,39.590 274.028,39.678 203.000 L 39.800 104.600 41.000 102.431 C 43.880 97.224,44.759 97.035,65.600 97.145 C 74.950 97.194,82.832 97.077,83.115 96.884 C 83.491 96.628,83.599 95.462,83.515 92.567 L 83.400 88.600 65.800 88.539 C 52.993 88.494,47.581 88.614,45.926 88.978 M316.685 88.649 C 315.851 89.482,316.390 96.782,317.300 96.993 C 318.465 97.262,353.198 97.464,352.934 97.200 C 352.824 97.090,344.784 96.910,335.067 96.800 L 317.400 96.600 317.286 92.962 L 317.172 89.323 333.708 89.038 C 349.554 88.764,353.643 88.867,355.400 89.588 C 362.412 92.464,365.887 96.035,368.062 102.600 C 368.494 103.904,368.631 122.480,368.802 203.000 L 369.012 301.800 369.006 202.600 L 369.000 103.400 368.129 101.284 C 366.696 97.805,365.365 95.839,362.899 93.560 C 360.789 91.610,359.741 90.959,355.800 89.151 C 354.496 88.552,317.259 88.074,316.685 88.649 M82.715 92.900 L 82.600 96.600 69.274 96.705 C 61.945 96.763,55.684 96.663,55.360 96.482 C 54.571 96.040,56.876 92.991,59.664 90.787 L 61.672 89.200 72.251 89.200 L 82.830 89.200 82.715 92.900 M355.269 98.758 C 357.260 100.020,358.757 101.817,359.636 104.000 C 360.589 106.365,360.470 302.828,359.515 304.852 C 358.505 306.991,356.953 308.676,354.858 309.908 L 353.000 311.000 335.200 311.101 C 315.593 311.213,315.600 311.212,315.600 312.508 C 315.600 312.999,315.333 314.660,315.007 316.200 C 314.681 317.740,314.411 319.196,314.407 319.435 C 314.397 320.064,347.790 320.555,351.692 319.983 C 359.301 318.868,368.116 311.921,367.985 307.144 C 367.977 306.845,367.403 307.755,366.709 309.167 C 365.214 312.212,361.826 315.769,358.970 317.291 C 354.626 319.607,353.996 319.659,333.664 319.355 L 315.127 319.078 315.360 317.839 C 315.488 317.157,315.710 315.565,315.852 314.300 L 316.111 312.000 332.582 312.000 C 342.336 312.000,349.976 311.829,351.316 311.582 C 355.123 310.878,357.225 309.431,359.200 306.154 L 360.600 303.831 360.600 204.216 L 360.600 104.600 359.724 103.000 C 358.305 100.407,355.308 97.600,353.960 97.600 C 353.676 97.600,354.265 98.121,355.269 98.758 M138.000 199.172 C 128.199 201.185,124.922 214.201,132.501 221.015 C 136.522 224.630,133.343 224.400,179.215 224.400 L 219.600 224.400 219.605 218.700 C 219.615 206.581,224.109 200.718,233.400 200.704 C 242.482 200.690,246.468 205.597,246.800 217.200 L 247.000 224.200 254.061 224.309 C 262.793 224.444,264.501 223.970,268.017 220.435 C 274.125 214.295,272.445 204.174,264.636 200.070 L 262.600 199.000 201.000 198.942 C 167.120 198.911,138.770 199.014,138.000 199.172 M264.215 200.625 C 266.454 201.683,270.000 205.232,270.000 206.413 C 270.000 206.758,270.198 207.238,270.441 207.481 C 271.418 208.458,271.043 214.578,269.862 216.912 C 268.248 220.102,264.578 223.200,262.411 223.200 C 261.991 223.200,261.536 223.380,261.400 223.600 C 261.251 223.841,258.478 224.000,254.422 224.000 L 247.691 224.000 247.538 217.013 C 247.433 212.190,247.233 209.873,246.893 209.533 C 246.622 209.262,246.400 208.716,246.400 208.320 C 246.400 207.924,246.220 207.600,246.000 207.600 C 245.780 207.600,245.600 207.334,245.600 207.009 C 245.600 206.683,244.640 205.457,243.467 204.284 C 236.493 197.310,224.511 199.256,220.550 208.006 C 219.316 210.731,219.200 211.556,219.200 217.619 L 219.200 224.000 179.024 224.000 C 152.671 224.000,138.762 223.862,138.600 223.600 C 138.464 223.380,138.020 223.200,137.614 223.200 C 135.555 223.200,130.000 218.557,130.000 216.837 C 130.000 216.465,129.790 215.950,129.533 215.693 C 129.246 215.406,129.067 213.830,129.067 211.600 C 129.067 209.370,129.246 207.794,129.533 207.507 C 129.790 207.250,130.000 206.735,130.000 206.363 C 130.000 205.220,133.509 201.706,135.717 200.637 L 137.800 199.629 199.925 199.615 L 262.050 199.600 264.215 200.625 M368.467 303.050 C 368.430 303.518,368.298 304.507,368.173 305.250 C 367.988 306.353,368.029 306.471,368.397 305.893 C 368.645 305.504,368.777 304.514,368.691 303.693 C 368.605 302.872,368.504 302.582,368.467 303.050 M204.712 315.600 L 208.406 319.200 135.039 319.200 L 61.672 319.200 59.706 317.646 C 57.978 316.280,55.922 314.011,55.044 312.500 C 54.811 312.101,69.491 312.000,127.886 312.000 L 201.019 312.000 204.712 315.600 M27.499 324.789 C 22.054 324.905,17.586 325.090,17.571 325.200 C 17.517 325.593,19.903 331.299,20.749 332.800 C 21.043 333.321,24.302 333.414,45.615 333.503 C 72.542 333.616,71.600 333.526,71.600 335.982 C 71.600 337.914,71.217 338.000,62.585 338.000 C 58.155 338.000,47.743 338.119,39.446 338.265 L 24.362 338.531 25.992 340.192 C 27.998 342.236,32.311 344.859,35.676 346.083 L 38.200 347.000 128.913 347.107 L 219.626 347.214 219.513 342.707 L 219.400 338.200 180.800 338.000 C 148.952 337.835,141.955 337.702,140.800 337.239 C 137.763 336.021,135.034 333.799,132.427 330.421 C 130.982 328.548,129.233 326.427,128.540 325.708 L 127.280 324.400 82.340 324.489 C 57.623 324.539,32.945 324.674,27.499 324.789 M312.386 325.017 C 312.105 325.356,311.483 326.391,311.004 327.317 C 310.525 328.243,309.654 329.845,309.067 330.877 C 307.532 333.578,307.552 333.600,311.538 333.600 C 315.454 333.600,316.400 334.090,316.400 336.117 C 316.400 337.682,315.370 338.000,310.306 338.000 C 307.304 338.000,305.597 338.163,305.280 338.480 C 304.751 339.009,304.605 345.885,305.106 346.645 C 305.429 347.135,354.752 347.619,358.800 347.173 C 360.010 347.040,348.535 346.901,333.300 346.865 L 305.600 346.800 305.600 342.600 L 305.600 338.400 310.629 338.400 C 316.198 338.400,316.933 338.116,316.933 335.967 C 316.933 333.800,315.894 333.200,312.138 333.200 C 310.150 333.200,308.800 333.036,308.800 332.795 C 308.800 332.393,309.609 330.786,310.005 330.400 C 310.118 330.290,310.754 329.120,311.418 327.800 L 312.626 325.400 347.491 325.298 L 382.357 325.196 381.530 327.098 C 381.075 328.144,380.277 329.945,379.757 331.100 L 378.811 333.200 354.105 333.213 C 326.682 333.227,328.000 333.093,328.000 335.864 C 328.000 338.536,326.700 338.399,352.180 338.415 L 375.400 338.429 373.104 340.594 C 370.873 342.696,365.000 345.965,363.339 346.028 C 362.933 346.044,362.240 346.226,361.800 346.432 C 360.191 347.189,364.177 346.341,366.200 345.496 C 370.304 343.782,376.020 339.404,375.420 338.433 C 375.234 338.131,368.236 338.000,352.256 338.000 C 327.766 338.000,328.400 338.054,328.400 335.982 C 328.400 333.525,327.439 333.616,354.573 333.503 L 379.289 333.400 381.045 329.411 C 382.010 327.217,382.800 325.192,382.800 324.911 C 382.800 324.065,313.089 324.170,312.386 325.017 M128.110 325.700 C 128.671 327.128,134.990 334.492,136.615 335.610 C 140.924 338.575,138.151 338.400,180.894 338.400 L 219.200 338.400 219.200 342.600 L 219.200 346.800 136.900 346.796 L 54.600 346.792 52.540 345.833 C 50.363 344.819,44.257 339.355,44.629 338.754 C 44.749 338.559,50.755 338.400,57.975 338.400 C 72.519 338.400,72.080 338.481,72.080 335.784 C 72.080 333.197,72.269 333.227,55.878 333.213 L 41.156 333.200 40.130 330.900 C 39.565 329.635,38.772 327.835,38.366 326.900 L 37.628 325.200 82.771 325.200 C 118.515 325.200,127.955 325.304,128.110 325.700 M83.795 334.005 C 82.896 334.999,82.850 336.907,83.705 337.762 C 84.253 338.311,85.687 338.400,93.925 338.400 L 103.508 338.400 104.154 337.414 C 105.004 336.117,104.969 335.523,103.971 334.254 L 103.142 333.200 93.833 333.200 C 85.012 333.200,84.486 333.242,83.795 334.005 M103.269 334.262 C 104.166 335.074,104.214 336.528,103.371 337.371 C 102.614 338.129,85.744 338.319,84.374 337.586 C 83.414 337.072,83.354 335.335,84.262 334.331 C 85.222 333.271,102.105 333.209,103.269 334.262 " stroke="none" fill="#aaaaab" fill-rule="evenodd"></path></g></svg>